<svg width="61" height="61" viewBox="0 0 61 61" fill="none" xmlns="http://www.w3.org/2000/svg">
<path d="M27.0376 18.51C24.8364 18.51 22.6334 19.3501 20.9533 21.0311C17.593 24.3913 17.593 29.8403 20.9533 33.2014C21.348 33.5962 21.775 33.9413 22.2212 34.2428L34.1659 22.2999C33.8626 21.8528 33.5184 21.4267 33.1228 21.0311C31.4427 19.3501 29.2406 18.51 27.0376 18.51ZM22.351 29.1833C22.067 28.541 21.9179 27.8395 21.9179 27.1162C21.9179 25.7481 22.4504 24.4627 23.4177 23.4955C24.385 22.529 25.6703 21.9957 27.0376 21.9957C27.7617 21.9957 28.4632 22.1456 29.1064 22.4288L22.351 29.1833Z" fill="black"/>
<path d="M57.2318 15.2535L49.2216 7.24331C48.568 6.58974 47.6809 6.222 46.7572 6.222C45.8318 6.222 44.9464 6.58974 44.2919 7.24331L42.8567 8.67855C38.4534 4.88871 32.9041 2.82343 27.0385 2.82343C20.5507 2.82343 14.4507 5.3497 9.86267 9.93864C5.27373 14.5267 2.74658 20.6267 2.74658 27.1162C2.74745 32.9827 4.81361 38.5328 8.60084 42.9327L7.31897 44.2163C5.9578 45.5783 5.9578 47.7839 7.31984 49.1451L15.33 57.1544C16.0106 57.835 16.9029 58.1757 17.7944 58.1757C18.6859 58.1757 19.5782 57.835 20.2588 57.1544L39.9749 37.4383C39.9749 37.4383 39.9766 37.4383 39.9775 37.4366L39.9792 37.4348L57.2309 20.1832C58.593 18.822 58.593 16.6147 57.2318 15.2535ZM50.4529 22.0323L47.9885 19.5679C47.6478 19.2272 47.0971 19.2272 46.7563 19.5679C46.4156 19.9087 46.4156 20.4594 46.7563 20.8001L49.2207 23.2645L47.3724 25.1137L46.7555 24.4967C46.4147 24.156 45.864 24.156 45.5233 24.4967C45.1825 24.8375 45.1825 25.3882 45.5233 25.7289L46.1402 26.3459L44.2911 28.1942L43.675 27.5772C43.3342 27.2365 42.7835 27.2365 42.4428 27.5772C42.102 27.918 42.102 28.4687 42.4428 28.8094L43.0589 29.4264L41.2106 31.2756L40.5945 30.6595C40.2537 30.3187 39.703 30.3187 39.3623 30.6595C39.0215 31.0002 39.0215 31.5509 39.3623 31.8917L39.9784 32.5078L38.1301 34.3569L37.514 33.7408C37.1732 33.4001 36.6225 33.4001 36.2818 33.7408C35.941 34.0816 35.941 34.6323 36.2818 34.973L36.8979 35.5891L35.0487 37.4366L32.5843 34.9722C32.2436 34.6314 31.6928 34.6314 31.3521 34.9722C31.0114 35.3129 31.0114 35.8636 31.3521 36.2044L33.8165 38.6688L31.9682 40.5171L31.3521 39.901C31.0114 39.5602 30.4606 39.5602 30.1199 39.901C29.7792 40.2417 29.7792 40.7924 30.1199 41.1332L30.736 41.7493L28.8868 43.5993L28.2707 42.9815C27.93 42.6407 27.3793 42.6407 27.0385 42.9815C26.6978 43.3222 26.6978 43.8729 27.0385 44.2137L27.6546 44.8315L25.8063 46.6798L25.1902 46.0637C24.8495 45.723 24.2988 45.723 23.958 46.0637C23.6173 46.4044 23.6173 46.9552 23.958 47.2959L24.5741 47.912L22.7258 49.7603L22.1097 49.1442C21.769 48.8035 21.2183 48.8035 20.8775 49.1442C20.5368 49.4849 20.5368 50.0357 20.8775 50.3764L21.4936 50.9925L17.7962 54.6891L9.78598 46.6798L13.5323 42.9318C13.1218 42.5815 12.7166 42.2155 12.3279 41.8251C10.1433 39.6413 8.56598 37.0863 7.556 34.3665L9.96898 33.6032C10.4274 33.4576 10.6818 32.9679 10.5363 32.5095C10.3908 32.0511 9.90537 31.7941 9.44264 31.9422L7.01135 32.6969C6.2262 29.8787 6.05627 26.6509 6.48153 24.0366H8.36381C8.84571 24.0366 9.23524 23.6471 9.23524 23.1652C9.23524 22.6833 8.84571 22.2938 8.36381 22.2938H6.81267C7.61438 18.808 9.28142 15.6787 11.8147 12.9538L13.4817 14.6287C13.6516 14.7986 13.8747 14.8884 14.0978 14.8884C14.3209 14.8884 14.544 14.8047 14.7139 14.6348C15.0546 14.294 15.0546 13.7442 14.7139 13.4034L13.2307 11.7451C15.6045 9.58397 17.9365 8.04851 21.4222 7.18231V8.74653C21.4222 9.22843 21.8117 9.61795 22.2936 9.61795C22.7755 9.61795 23.165 9.22843 23.165 8.74653V6.75183C24.0365 6.46425 25.7967 6.31001 27.2137 6.31001C29.5204 6.31001 31.7329 6.71523 33.9376 7.47773L33.2954 9.36524C33.1499 9.82361 33.3825 10.3134 33.8409 10.4589C33.9289 10.4868 34.0056 10.4998 34.0927 10.4998C34.4631 10.4998 34.8003 10.2628 34.9171 9.89158L35.4774 8.11648C37.7501 9.1256 39.8877 10.5408 41.7509 12.4048C42.1395 12.7943 42.5038 13.1978 42.8567 13.61L46.7563 9.70858L54.7665 17.7188L50.4529 22.0323Z" fill="black"/>
</svg>
